<svg width="167" height="26" viewBox="0 0 167 26" fill="none" xmlns="http://www.w3.org/2000/svg">
<path d="M17.08 20.068L23.848 10.6V25H30.328V0.879999H23.848L15.424 13.228L7 0.879999H0.52V25H7V10.6L13.768 20.068H17.08ZM34.9998 12.04V17.08H47.6358V12.04H34.9998ZM76.7852 17.08C76.7852 13.12 74.6972 9.88 67.2092 9.88H66.2012C63.6092 9.88 61.1252 9.88 58.7852 10.24V6.64H75.3812V0.879999H52.3052V25C56.4092 25.468 61.1252 25.72 65.4812 25.72H66.4892C74.5532 25.72 76.7852 22.48 76.7852 18.52V17.08ZM65.1932 15.64C71.0252 15.64 71.0252 16.576 71.0252 17.8C71.0252 19.06 71.0252 19.96 65.4452 19.96C63.9332 19.96 61.1612 19.852 58.7852 19.636V15.964C61.0172 15.676 62.9612 15.64 65.1932 15.64ZM85.3411 25L87.3931 20.32H99.5251L101.613 25H107.445V23.56L96.7171 0.879999H90.2371L79.5091 23.56V25H85.3411ZM89.8051 14.92L93.4771 6.676L97.1491 14.92H89.8051ZM110.7 0.879999V25H117.18V16H129.78V25H136.26V0.879999H129.78V10.24H117.18V0.879999H110.7ZM141.286 0.879999V25H147.766V16H152.194L159.754 25H166.09V23.56L157.198 12.94L166.09 2.32V0.879999H159.754L151.906 10.24H147.766V0.879999H141.286Z" fill="#78B3FF"/>
</svg>
