<svg width="26" height="25" viewBox="0 0 26 25" fill="none" xmlns="http://www.w3.org/2000/svg">
<path fill-rule="evenodd" clip-rule="evenodd" d="M25.8341 22.6464L25.4575 24.1691L0.504974 24.234L0.165894 22.6921L7.97705 19.9426L8.31865 17.0202C7.75501 16.2257 7.34173 15.3699 7.03765 14.4208C4.73381 12.0958 5.07877 9.06424 6.29285 8.96626C6.28025 8.48129 6.27437 7.97689 6.27437 7.44977C6.27437 3.93731 8.56897 0.75354 12.9829 0.75354C17.3968 0.75354 19.6183 3.83303 19.6183 7.98975C19.6183 8.32611 19.6172 8.65097 19.6147 8.9668C20.8935 8.85569 21.3569 11.8364 19.1978 14.212C18.9463 15.3387 18.5479 16.3018 17.919 17.1995L18.4012 20.0382L25.8341 22.6464ZM16.7853 21.2788C16.7422 20.7473 16.6702 19.5406 16.6207 18.6749C16.0117 19.2442 15.2814 19.8096 14.4019 20.3997L12.0292 20.3655C11.1229 19.7828 10.3554 19.1988 9.70577 18.5923C9.65705 19.5491 9.58566 20.9613 9.5599 21.53C9.47674 23.37 16.9575 23.4031 16.7853 21.2788ZM18.1579 7.33893C18.1579 4.49836 15.791 2.25716 12.9826 2.25716C10.1742 2.25716 7.80709 4.48057 7.80709 7.33893C7.80709 13.8931 8.61209 16.2348 12.5117 18.7067L13.8386 18.7455C17.5587 16.2717 18.1579 13.8578 18.1579 7.33893Z" fill="white"/>
</svg>
